<?xml version="1.0" encoding="UTF-8" standalone="no"?>
<!DOCTYPE svg PUBLIC "-//W3C//DTD SVG 1.1//EN"
 "http://www.w3.org/Graphics/SVG/1.1/DTD/svg11.dtd">
<!-- Generated by graphviz version 2.38.0 (20140413.2041)
 -->
<!-- Title: controllers_diagram Pages: 1 -->
<svg width="486pt" height="401pt"
 viewBox="0.00 0.00 486.16 401.00" xmlns="http://www.w3.org/2000/svg" xmlns:xlink="http://www.w3.org/1999/xlink">
<g id="graph0" class="graph" transform="scale(1 1) rotate(0) translate(179.714 285.5)">
<title>controllers_diagram</title>
<polygon fill="white" stroke="none" points="-179.714,115.5 -179.714,-285.5 306.45,-285.5 306.45,115.5 -179.714,115.5"/>
<!-- _diagram_info -->
<g id="node1" class="node"><title>_diagram_info</title>
<text text-anchor="start" x="103.55" y="-91.1" font-family="Times,serif" font-size="13.00">Controllers diagram</text>
<text text-anchor="start" x="103.55" y="-78.1" font-family="Times,serif" font-size="13.00">Date: Jun 13 2015 &#45; 09:31</text>
<text text-anchor="start" x="103.55" y="-65.1" font-family="Times,serif" font-size="13.00">Migration version: 20150612141121</text>
<text text-anchor="start" x="103.55" y="-52.1" font-family="Times,serif" font-size="13.00">Generated by RailRoady 1.3.0</text>
<text text-anchor="start" x="103.55" y="-39.1" font-family="Times,serif" font-size="13.00">http://railroady.prestonlee.com</text>
</g>
<!-- ApplicationController -->
<g id="node2" class="node"><title>ApplicationController</title>
<path fill="none" stroke="black" d="M108.034,95C108.034,95 281.966,95 281.966,95 287.966,95 293.966,89 293.966,83 293.966,83 293.966,17 293.966,17 293.966,11 287.966,5 281.966,5 281.966,5 108.034,5 108.034,5 102.034,5 96.0342,11 96.0342,17 96.0342,17 96.0342,83 96.0342,83 96.0342,89 102.034,95 108.034,95"/>
<text text-anchor="middle" x="195" y="20.2" font-family="Times,serif" font-size="14.00">ApplicationController</text>
<polyline fill="none" stroke="black" points="96.0342,27 293.966,27 "/>
<polyline fill="none" stroke="black" points="96.0342,51 293.966,51 "/>
<text text-anchor="start" x="104.034" y="66.2" font-family="Times,serif" font-size="14.00">configure_permitted_parameters</text>
<polyline fill="none" stroke="black" points="96.0342,73 293.966,73 "/>
<text text-anchor="start" x="104.034" y="88.2" font-family="Times,serif" font-size="14.00">_layout</text>
</g>
<!-- FriendshipsController -->
<g id="node3" class="node"><title>FriendshipsController</title>
<path fill="none" stroke="black" d="M-68.4414,111C-68.4414,111 46.4414,111 46.4414,111 52.4414,111 58.4414,105 58.4414,99 58.4414,99 58.4414,-79 58.4414,-79 58.4414,-85 52.4414,-91 46.4414,-91 46.4414,-91 -68.4414,-91 -68.4414,-91 -74.4414,-91 -80.4414,-85 -80.4414,-79 -80.4414,-79 -80.4414,99 -80.4414,99 -80.4414,105 -74.4414,111 -68.4414,111"/>
<text text-anchor="middle" x="-11" y="-75.8" font-family="Times,serif" font-size="14.00">FriendshipsController</text>
<polyline fill="none" stroke="black" points="-80.4414,-69 58.4414,-69 "/>
<text text-anchor="start" x="-72.4414" y="-53.8" font-family="Times,serif" font-size="14.00">create</text>
<text text-anchor="start" x="-72.4414" y="-39.8" font-family="Times,serif" font-size="14.00">destroy</text>
<text text-anchor="start" x="-72.4414" y="-25.8" font-family="Times,serif" font-size="14.00">edit</text>
<text text-anchor="start" x="-72.4414" y="-11.8" font-family="Times,serif" font-size="14.00">index</text>
<text text-anchor="start" x="-72.4414" y="2.2" font-family="Times,serif" font-size="14.00">new</text>
<text text-anchor="start" x="-72.4414" y="16.2" font-family="Times,serif" font-size="14.00">show</text>
<text text-anchor="start" x="-72.4414" y="30.2" font-family="Times,serif" font-size="14.00">update</text>
<polyline fill="none" stroke="black" points="-80.4414,37 58.4414,37 "/>
<polyline fill="none" stroke="black" points="-80.4414,61 58.4414,61 "/>
<text text-anchor="start" x="-72.4414" y="76.2" font-family="Times,serif" font-size="14.00">_layout</text>
<text text-anchor="start" x="-72.4414" y="90.2" font-family="Times,serif" font-size="14.00">friendship_params</text>
<text text-anchor="start" x="-72.4414" y="104.2" font-family="Times,serif" font-size="14.00">set_friendship</text>
</g>
<!-- PostsController -->
<g id="node4" class="node"><title>PostsController</title>
<path fill="none" stroke="black" d="M-19.5586,-129C-19.5586,-129 59.5586,-129 59.5586,-129 65.5586,-129 71.5586,-135 71.5586,-141 71.5586,-141 71.5586,-263 71.5586,-263 71.5586,-269 65.5586,-275 59.5586,-275 59.5586,-275 -19.5586,-275 -19.5586,-275 -25.5586,-275 -31.5586,-269 -31.5586,-263 -31.5586,-263 -31.5586,-141 -31.5586,-141 -31.5586,-135 -25.5586,-129 -19.5586,-129"/>
<text text-anchor="middle" x="20" y="-259.8" font-family="Times,serif" font-size="14.00">PostsController</text>
<polyline fill="none" stroke="black" points="-31.5586,-253 71.5586,-253 "/>
<text text-anchor="start" x="-23.5586" y="-237.8" font-family="Times,serif" font-size="14.00">create</text>
<text text-anchor="start" x="-23.5586" y="-223.8" font-family="Times,serif" font-size="14.00">index</text>
<text text-anchor="start" x="-23.5586" y="-209.8" font-family="Times,serif" font-size="14.00">new</text>
<text text-anchor="start" x="-23.5586" y="-195.8" font-family="Times,serif" font-size="14.00">show</text>
<polyline fill="none" stroke="black" points="-31.5586,-189 71.5586,-189 "/>
<polyline fill="none" stroke="black" points="-31.5586,-165 71.5586,-165 "/>
<text text-anchor="start" x="-23.5586" y="-149.8" font-family="Times,serif" font-size="14.00">_layout</text>
<text text-anchor="start" x="-23.5586" y="-135.8" font-family="Times,serif" font-size="14.00">post_params</text>
</g>
<!-- StaticPagesController -->
<g id="node5" class="node"><title>StaticPagesController</title>
<path fill="none" stroke="black" d="M155.955,-145C155.955,-145 270.045,-145 270.045,-145 276.045,-145 282.045,-151 282.045,-157 282.045,-157 282.045,-223 282.045,-223 282.045,-229 276.045,-235 270.045,-235 270.045,-235 155.955,-235 155.955,-235 149.955,-235 143.955,-229 143.955,-223 143.955,-223 143.955,-157 143.955,-157 143.955,-151 149.955,-145 155.955,-145"/>
<text text-anchor="middle" x="213" y="-219.8" font-family="Times,serif" font-size="14.00">StaticPagesController</text>
<polyline fill="none" stroke="black" points="143.955,-213 282.045,-213 "/>
<text text-anchor="start" x="151.955" y="-197.8" font-family="Times,serif" font-size="14.00">index</text>
<polyline fill="none" stroke="black" points="143.955,-191 282.045,-191 "/>
<polyline fill="none" stroke="black" points="143.955,-167 282.045,-167 "/>
<text text-anchor="start" x="151.955" y="-151.8" font-family="Times,serif" font-size="14.00">_layout</text>
</g>
<!-- UsersController -->
<g id="node6" class="node"><title>UsersController</title>
<path fill="none" stroke="black" d="M-163.714,-177C-163.714,-177 -82.2861,-177 -82.2861,-177 -76.2861,-177 -70.2861,-183 -70.2861,-189 -70.2861,-189 -70.2861,-269 -70.2861,-269 -70.2861,-275 -76.2861,-281 -82.2861,-281 -82.2861,-281 -163.714,-281 -163.714,-281 -169.714,-281 -175.714,-275 -175.714,-269 -175.714,-269 -175.714,-189 -175.714,-189 -175.714,-183 -169.714,-177 -163.714,-177"/>
<text text-anchor="middle" x="-123" y="-265.8" font-family="Times,serif" font-size="14.00">UsersController</text>
<polyline fill="none" stroke="black" points="-175.714,-259 -70.2861,-259 "/>
<text text-anchor="start" x="-167.714" y="-243.8" font-family="Times,serif" font-size="14.00">index</text>
<text text-anchor="start" x="-167.714" y="-229.8" font-family="Times,serif" font-size="14.00">show</text>
<polyline fill="none" stroke="black" points="-175.714,-223 -70.2861,-223 "/>
<polyline fill="none" stroke="black" points="-175.714,-199 -70.2861,-199 "/>
<text text-anchor="start" x="-167.714" y="-183.8" font-family="Times,serif" font-size="14.00">_layout</text>
</g>
</g>
</svg>
