<?xml version="1.0" encoding="UTF-8" standalone="no"?>
<!DOCTYPE svg PUBLIC "-//W3C//DTD SVG 1.1//EN"
 "http://www.w3.org/Graphics/SVG/1.1/DTD/svg11.dtd">
<!-- Generated by graphviz version 2.38.0 (20140413.2041)
 -->
<!-- Title: models_diagram Pages: 1 -->
<svg width="828pt" height="428pt"
 viewBox="0.00 0.00 827.73 428.00" xmlns="http://www.w3.org/2000/svg" xmlns:xlink="http://www.w3.org/1999/xlink">
<g id="graph0" class="graph" transform="scale(1 1) rotate(0) translate(4 424)">
<title>models_diagram</title>
<polygon fill="white" stroke="none" points="-4,4 -4,-424 823.728,-424 823.728,4 -4,4"/>
<!-- _diagram_info -->
<g id="node1" class="node"><title>_diagram_info</title>
<text text-anchor="start" x="8" y="-314.6" font-family="Times,serif" font-size="13.00">Models diagram</text>
<text text-anchor="start" x="8" y="-301.6" font-family="Times,serif" font-size="13.00">Date: Jun 13 2015 &#45; 09:31</text>
<text text-anchor="start" x="8" y="-288.6" font-family="Times,serif" font-size="13.00">Migration version: 20150612141121</text>
<text text-anchor="start" x="8" y="-275.6" font-family="Times,serif" font-size="13.00">Generated by RailRoady 1.3.0</text>
<text text-anchor="start" x="8" y="-262.6" font-family="Times,serif" font-size="13.00">http://railroady.prestonlee.com</text>
</g>
<!-- Friendship -->
<g id="node2" class="node"><title>Friendship</title>
<path fill="none" stroke="black" d="M242.944,-0.5C242.944,-0.5 351.955,-0.5 351.955,-0.5 357.955,-0.5 363.955,-6.5 363.955,-12.5 363.955,-12.5 363.955,-102.5 363.955,-102.5 363.955,-108.5 357.955,-114.5 351.955,-114.5 351.955,-114.5 242.944,-114.5 242.944,-114.5 236.944,-114.5 230.944,-108.5 230.944,-102.5 230.944,-102.5 230.944,-12.5 230.944,-12.5 230.944,-6.5 236.944,-0.5 242.944,-0.5"/>
<text text-anchor="middle" x="297.45" y="-99.3" font-family="Times,serif" font-size="14.00">Friendship</text>
<polyline fill="none" stroke="black" points="230.944,-92.5 363.955,-92.5 "/>
<text text-anchor="start" x="238.944" y="-77.3" font-family="Times,serif" font-size="14.00">id :integer</text>
<text text-anchor="start" x="238.944" y="-63.3" font-family="Times,serif" font-size="14.00">user_id :integer</text>
<text text-anchor="start" x="238.944" y="-49.3" font-family="Times,serif" font-size="14.00">friend_id :integer</text>
<text text-anchor="start" x="238.944" y="-35.3" font-family="Times,serif" font-size="14.00">approved :boolean</text>
<text text-anchor="start" x="238.944" y="-21.3" font-family="Times,serif" font-size="14.00">created_at :datetime</text>
<text text-anchor="start" x="238.944" y="-7.3" font-family="Times,serif" font-size="14.00">updated_at :datetime</text>
</g>
<!-- Post -->
<g id="node3" class="node"><title>Post</title>
<path fill="none" stroke="black" d="M397.944,-7.5C397.944,-7.5 506.955,-7.5 506.955,-7.5 512.955,-7.5 518.955,-13.5 518.955,-19.5 518.955,-19.5 518.955,-95.5 518.955,-95.5 518.955,-101.5 512.955,-107.5 506.955,-107.5 506.955,-107.5 397.944,-107.5 397.944,-107.5 391.944,-107.5 385.944,-101.5 385.944,-95.5 385.944,-95.5 385.944,-19.5 385.944,-19.5 385.944,-13.5 391.944,-7.5 397.944,-7.5"/>
<text text-anchor="middle" x="452.45" y="-92.3" font-family="Times,serif" font-size="14.00">Post</text>
<polyline fill="none" stroke="black" points="385.944,-85.5 518.955,-85.5 "/>
<text text-anchor="start" x="393.944" y="-70.3" font-family="Times,serif" font-size="14.00">id :integer</text>
<text text-anchor="start" x="393.944" y="-56.3" font-family="Times,serif" font-size="14.00">content :text</text>
<text text-anchor="start" x="393.944" y="-42.3" font-family="Times,serif" font-size="14.00">user_id :integer</text>
<text text-anchor="start" x="393.944" y="-28.3" font-family="Times,serif" font-size="14.00">created_at :datetime</text>
<text text-anchor="start" x="393.944" y="-14.3" font-family="Times,serif" font-size="14.00">updated_at :datetime</text>
</g>
<!-- User -->
<g id="node4" class="node"><title>User</title>
<path fill="none" stroke="black" d="M237.172,-165.5C237.172,-165.5 417.728,-165.5 417.728,-165.5 423.728,-165.5 429.728,-171.5 429.728,-177.5 429.728,-177.5 429.728,-407.5 429.728,-407.5 429.728,-413.5 423.728,-419.5 417.728,-419.5 417.728,-419.5 237.172,-419.5 237.172,-419.5 231.172,-419.5 225.172,-413.5 225.172,-407.5 225.172,-407.5 225.172,-177.5 225.172,-177.5 225.172,-171.5 231.172,-165.5 237.172,-165.5"/>
<text text-anchor="middle" x="327.45" y="-404.3" font-family="Times,serif" font-size="14.00">User</text>
<polyline fill="none" stroke="black" points="225.172,-397.5 429.728,-397.5 "/>
<text text-anchor="start" x="233.172" y="-382.3" font-family="Times,serif" font-size="14.00">id :integer</text>
<text text-anchor="start" x="233.172" y="-368.3" font-family="Times,serif" font-size="14.00">email :string</text>
<text text-anchor="start" x="233.172" y="-354.3" font-family="Times,serif" font-size="14.00">encrypted_password :string</text>
<text text-anchor="start" x="233.172" y="-340.3" font-family="Times,serif" font-size="14.00">reset_password_token :string</text>
<text text-anchor="start" x="233.172" y="-326.3" font-family="Times,serif" font-size="14.00">reset_password_sent_at :datetime</text>
<text text-anchor="start" x="233.172" y="-312.3" font-family="Times,serif" font-size="14.00">remember_created_at :datetime</text>
<text text-anchor="start" x="233.172" y="-298.3" font-family="Times,serif" font-size="14.00">sign_in_count :integer</text>
<text text-anchor="start" x="233.172" y="-284.3" font-family="Times,serif" font-size="14.00">current_sign_in_at :datetime</text>
<text text-anchor="start" x="233.172" y="-270.3" font-family="Times,serif" font-size="14.00">last_sign_in_at :datetime</text>
<text text-anchor="start" x="233.172" y="-256.3" font-family="Times,serif" font-size="14.00">current_sign_in_ip :inet</text>
<text text-anchor="start" x="233.172" y="-242.3" font-family="Times,serif" font-size="14.00">last_sign_in_ip :inet</text>
<text text-anchor="start" x="233.172" y="-228.3" font-family="Times,serif" font-size="14.00">created_at :datetime</text>
<text text-anchor="start" x="233.172" y="-214.3" font-family="Times,serif" font-size="14.00">updated_at :datetime</text>
<text text-anchor="start" x="233.172" y="-200.3" font-family="Times,serif" font-size="14.00">first_name :string</text>
<text text-anchor="start" x="233.172" y="-186.3" font-family="Times,serif" font-size="14.00">last_name :string</text>
<text text-anchor="start" x="233.172" y="-172.3" font-family="Times,serif" font-size="14.00">admin :boolean</text>
</g>
<!-- User&#45;&gt;Friendship -->
<g id="edge2" class="edge"><title>User&#45;&gt;Friendship</title>
<path fill="none" stroke="#7874df" d="M309.769,-157.284C309.323,-153.821 308.883,-150.388 308.45,-147 307.531,-139.82 306.582,-132.311 305.643,-124.833"/>
<ellipse fill="none" stroke="#7874df" cx="310.306" cy="-161.446" rx="4.00001" ry="4.00001"/>
<polygon fill="#7874df" stroke="#7874df" points="305.615,-124.611 308.838,-114.129 304.994,-119.649 304.373,-114.688 304.373,-114.688 304.373,-114.688 304.994,-119.649 299.908,-115.247 305.615,-124.611 305.615,-124.611"/>
</g>
<!-- User&#45;&gt;Friendship -->
<g id="edge3" class="edge"><title>User&#45;&gt;Friendship</title>
<path fill="none" stroke="#955293" d="M310.15,-157.138C308.711,-145.959 307.3,-135.005 305.973,-124.701"/>
<ellipse fill="none" stroke="#955293" cx="310.71" cy="-161.486" rx="4.00001" ry="4.00001"/>
<polygon fill="#955293" stroke="#955293" points="305.954,-124.547 309.14,-114.054 305.315,-119.588 304.677,-114.629 304.677,-114.629 304.677,-114.629 305.315,-119.588 300.213,-115.204 305.954,-124.547 305.954,-124.547"/>
<text text-anchor="middle" x="362.664" y="-135.8" font-family="Times,serif" font-size="14.00">passive_friendships</text>
</g>
<!-- User&#45;&gt;Post -->
<g id="edge1" class="edge"><title>User&#45;&gt;Post</title>
<path fill="none" stroke="#095c8e" d="M415.806,-158.095C417.754,-154.385 419.64,-150.683 421.45,-147 426.075,-137.589 430.336,-127.311 434.122,-117.198"/>
<ellipse fill="none" stroke="#095c8e" cx="413.873" cy="-161.708" rx="4.00002" ry="4.00002"/>
<polygon fill="#095c8e" stroke="#095c8e" points="434.198,-116.988 441.835,-109.118 435.901,-112.287 437.604,-107.586 437.604,-107.586 437.604,-107.586 435.901,-112.287 433.372,-106.053 434.198,-116.988 434.198,-116.988"/>
</g>
<!-- User&#45;&gt;User -->
<g id="edge4" class="edge"><title>User&#45;&gt;User</title>
<path fill="none" stroke="#3728f3" d="M440.049,-296.845C444.903,-295.731 447.728,-294.283 447.728,-292.5 447.728,-290.717 444.903,-289.269 440.049,-288.155"/>
<polygon fill="#3728f3" stroke="#3728f3" points="439.984,-296.855 429.408,-293.958 435.045,-297.629 430.105,-298.403 430.105,-298.403 430.105,-298.403 435.045,-297.629 430.802,-302.849 439.984,-296.855 439.984,-296.855"/>
<polygon fill="#3728f3" stroke="#3728f3" points="439.984,-288.145 430.802,-282.151 435.045,-287.371 430.105,-286.597 430.105,-286.597 430.105,-286.597 435.045,-287.371 429.408,-291.042 439.984,-288.145 439.984,-288.145"/>
<text text-anchor="middle" x="474.166" y="-288.3" font-family="Times,serif" font-size="14.00">followers</text>
</g>
<!-- User&#45;&gt;User -->
<g id="edge5" class="edge"><title>User&#45;&gt;User</title>
<path fill="none" stroke="#9700b3" d="M440.104,-306.661C473.669,-305.968 500.604,-301.248 500.604,-292.5 500.604,-283.752 473.669,-279.032 440.104,-278.339"/>
<polygon fill="#9700b3" stroke="#9700b3" points="439.989,-306.662 429.951,-302.248 434.99,-306.705 429.99,-306.748 429.99,-306.748 429.99,-306.748 434.99,-306.705 430.029,-311.248 439.989,-306.662 439.989,-306.662"/>
<polygon fill="#9700b3" stroke="#9700b3" points="439.989,-278.338 430.029,-273.752 434.99,-278.295 429.99,-278.252 429.99,-278.252 429.99,-278.252 434.99,-278.295 429.951,-282.752 439.989,-278.338 439.989,-278.338"/>
<text text-anchor="middle" x="527.824" y="-288.3" font-family="Times,serif" font-size="14.00">following</text>
</g>
<!-- User&#45;&gt;User -->
<g id="edge6" class="edge"><title>User&#45;&gt;User</title>
<path fill="none" stroke="#43ca9c" d="M440.037,-313.483C498.475,-315.675 555.045,-308.681 555.045,-292.5 555.045,-276.319 498.475,-269.325 440.037,-271.517"/>
<polygon fill="#43ca9c" stroke="#43ca9c" points="439.875,-313.475 430.096,-308.515 434.881,-313.243 429.886,-313.01 429.886,-313.01 429.886,-313.01 434.881,-313.243 429.677,-317.505 439.875,-313.475 439.875,-313.475"/>
<polygon fill="#43ca9c" stroke="#43ca9c" points="439.875,-271.525 429.677,-267.495 434.881,-271.757 429.886,-271.99 429.886,-271.99 429.886,-271.99 434.881,-271.757 430.096,-276.485 439.875,-271.525 439.875,-271.525"/>
<text text-anchor="middle" x="600.535" y="-288.3" font-family="Times,serif" font-size="14.00">pending_friends</text>
</g>
<!-- User&#45;&gt;User -->
<g id="edge7" class="edge"><title>User&#45;&gt;User</title>
<path fill="none" stroke="#46d25b" d="M440.095,-318.2C533.678,-326.022 646.024,-317.456 646.024,-292.5 646.024,-267.544 533.678,-258.978 440.095,-266.8"/>
<polygon fill="#46d25b" stroke="#46d25b" points="439.905,-318.182 430.352,-312.797 434.926,-317.731 429.946,-317.279 429.946,-317.279 429.946,-317.279 434.926,-317.731 429.54,-321.761 439.905,-318.182 439.905,-318.182"/>
<polygon fill="#46d25b" stroke="#46d25b" points="439.905,-266.818 429.54,-263.239 434.926,-267.269 429.946,-267.721 429.946,-267.721 429.946,-267.721 434.926,-267.269 430.352,-272.203 439.905,-266.818 439.905,-266.818"/>
<text text-anchor="middle" x="707.452" y="-288.3" font-family="Times,serif" font-size="14.00">requested_friendships</text>
</g>
</g>
</svg>
