<?xml version="1.0" encoding="UTF-8" standalone="no"?>
<!DOCTYPE svg PUBLIC "-//W3C//DTD SVG 1.1//EN"
 "http://www.w3.org/Graphics/SVG/1.1/DTD/svg11.dtd">
<!-- Generated by graphviz version 2.38.0 (20140413.2041)
 -->
<!-- Title: models_diagram Pages: 1 -->
<svg width="676pt" height="167pt"
 viewBox="0.00 0.00 676.45 167.00" xmlns="http://www.w3.org/2000/svg" xmlns:xlink="http://www.w3.org/1999/xlink">
<g id="graph0" class="graph" transform="scale(1 1) rotate(0) translate(4 163)">
<title>models_diagram</title>
<polygon fill="white" stroke="none" points="-4,4 -4,-163 672.45,-163 672.45,4 -4,4"/>
<!-- _diagram_info -->
<g id="node1" class="node"><title>_diagram_info</title>
<text text-anchor="start" x="8" y="-144.6" font-family="Times,serif" font-size="13.00">Models diagram</text>
<text text-anchor="start" x="8" y="-131.6" font-family="Times,serif" font-size="13.00">Date: Jun 13 2015 &#45; 09:31</text>
<text text-anchor="start" x="8" y="-118.6" font-family="Times,serif" font-size="13.00">Migration version: 20150612141121</text>
<text text-anchor="start" x="8" y="-105.6" font-family="Times,serif" font-size="13.00">Generated by RailRoady 1.3.0</text>
<text text-anchor="start" x="8" y="-92.6" font-family="Times,serif" font-size="13.00">http://railroady.prestonlee.com</text>
</g>
<!-- Friendship -->
<g id="node2" class="node"><title>Friendship</title>
<ellipse fill="none" stroke="black" cx="234.45" cy="-18" rx="47.8754" ry="18"/>
<text text-anchor="middle" x="234.45" y="-13.8" font-family="Times,serif" font-size="14.00">Friendship</text>
</g>
<!-- Post -->
<g id="node3" class="node"><title>Post</title>
<ellipse fill="none" stroke="black" cx="376.45" cy="-18" rx="27" ry="18"/>
<text text-anchor="middle" x="376.45" y="-13.8" font-family="Times,serif" font-size="14.00">Post</text>
</g>
<!-- User -->
<g id="node4" class="node"><title>User</title>
<ellipse fill="none" stroke="black" cx="251.45" cy="-122.5" rx="27" ry="18"/>
<text text-anchor="middle" x="251.45" y="-118.3" font-family="Times,serif" font-size="14.00">User</text>
</g>
<!-- User&#45;&gt;Friendship -->
<g id="edge2" class="edge"><title>User&#45;&gt;Friendship</title>
<path fill="none" stroke="#7719d9" d="M240.958,-97.4928C237.526,-88.4327 234.158,-77.9168 232.45,-68 231.393,-61.8681 232.272,-60.2197 232.45,-54 232.523,-51.4448 232.625,-48.7859 232.746,-46.1262"/>
<ellipse fill="none" stroke="#7719d9" cx="242.474" cy="-101.311" rx="4.00001" ry="4.00001"/>
<polygon fill="#7719d9" stroke="#7719d9" points="232.749,-46.0675 237.772,-36.3193 233.014,-41.0745 233.278,-36.0815 233.278,-36.0815 233.278,-36.0815 233.014,-41.0745 228.784,-35.8437 232.749,-46.0675 232.749,-46.0675"/>
</g>
<!-- User&#45;&gt;Friendship -->
<g id="edge3" class="edge"><title>User&#45;&gt;Friendship</title>
<path fill="none" stroke="#dfda31" d="M247.303,-96.4976C244.787,-81.3283 241.574,-61.9568 238.99,-46.3762"/>
<ellipse fill="none" stroke="#dfda31" cx="247.988" cy="-100.628" rx="4.00001" ry="4.00001"/>
<polygon fill="#dfda31" stroke="#dfda31" points="238.954,-46.1588 241.757,-35.5572 238.136,-41.2262 237.318,-36.2935 237.318,-36.2935 237.318,-36.2935 238.136,-41.2262 232.879,-37.0299 238.954,-46.1588 238.954,-46.1588"/>
<text text-anchor="middle" x="297.664" y="-56.8" font-family="Times,serif" font-size="14.00">passive_friendships</text>
</g>
<!-- User&#45;&gt;Post -->
<g id="edge1" class="edge"><title>User&#45;&gt;Post</title>
<path fill="none" stroke="#a16dc1" d="M283.56,-111.883C306.531,-103.552 336.753,-89.4191 356.45,-68 362.222,-61.7228 366.438,-53.5566 369.467,-45.6961"/>
<ellipse fill="none" stroke="#a16dc1" cx="279.545" cy="-113.278" rx="4.00001" ry="4.00001"/>
<polygon fill="#a16dc1" stroke="#a16dc1" points="369.516,-45.549 376.963,-37.4995 371.107,-40.8086 372.697,-36.0682 372.697,-36.0682 372.697,-36.0682 371.107,-40.8086 368.43,-34.637 369.516,-45.549 369.516,-45.549"/>
</g>
<!-- User&#45;&gt;User -->
<g id="edge4" class="edge"><title>User&#45;&gt;User</title>
<path fill="none" stroke="#c8c56e" d="M288.393,-124.976C293.239,-124.552 296.45,-123.727 296.45,-122.5 296.45,-121.273 293.239,-120.448 288.393,-120.024"/>
<polygon fill="#c8c56e" stroke="#c8c56e" points="288.239,-124.981 278.098,-120.809 283.242,-125.144 278.245,-125.306 278.245,-125.306 278.245,-125.306 283.242,-125.144 278.391,-129.804 288.239,-124.981 288.239,-124.981"/>
<polygon fill="#c8c56e" stroke="#c8c56e" points="288.239,-120.019 278.391,-115.196 283.242,-119.856 278.245,-119.694 278.245,-119.694 278.245,-119.694 283.242,-119.856 278.098,-124.191 288.239,-120.019 288.239,-120.019"/>
<text text-anchor="middle" x="322.888" y="-118.3" font-family="Times,serif" font-size="14.00">followers</text>
</g>
<!-- User&#45;&gt;User -->
<g id="edge5" class="edge"><title>User&#45;&gt;User</title>
<path fill="none" stroke="#198396" d="M288.267,-127.615C316.788,-129.084 349.326,-127.379 349.326,-122.5 349.326,-117.621 316.788,-115.916 288.267,-117.385"/>
<polygon fill="#198396" stroke="#198396" points="287.986,-127.596 278.308,-122.44 282.997,-127.263 278.008,-126.93 278.008,-126.93 278.008,-126.93 282.997,-127.263 277.709,-131.42 287.986,-127.596 287.986,-127.596"/>
<polygon fill="#198396" stroke="#198396" points="287.986,-117.404 277.709,-113.58 282.997,-117.737 278.008,-118.07 278.008,-118.07 278.008,-118.07 282.997,-117.737 278.308,-122.56 287.986,-117.404 287.986,-117.404"/>
<text text-anchor="middle" x="376.546" y="-118.3" font-family="Times,serif" font-size="14.00">following</text>
</g>
<!-- User&#45;&gt;User -->
<g id="edge6" class="edge"><title>User&#45;&gt;User</title>
<path fill="none" stroke="#bb8a5c" d="M287.674,-128.92C334.311,-133.015 403.767,-130.875 403.767,-122.5 403.767,-114.125 334.311,-111.985 287.674,-116.08"/>
<polygon fill="#bb8a5c" stroke="#bb8a5c" points="287.473,-128.9 277.981,-123.407 282.498,-128.392 277.524,-127.884 277.524,-127.884 277.524,-127.884 282.498,-128.392 277.067,-132.361 287.473,-128.9 287.473,-128.9"/>
<polygon fill="#bb8a5c" stroke="#bb8a5c" points="287.473,-116.1 277.067,-112.639 282.498,-116.608 277.524,-117.116 277.524,-117.116 277.524,-117.116 282.498,-116.608 277.981,-121.593 287.473,-116.1 287.473,-116.1"/>
<text text-anchor="middle" x="449.257" y="-118.3" font-family="Times,serif" font-size="14.00">pending_friends</text>
</g>
<!-- User&#45;&gt;User -->
<g id="edge7" class="edge"><title>User&#45;&gt;User</title>
<path fill="none" stroke="#86c577" d="M287.29,-129.478C357.409,-136.948 494.747,-134.622 494.747,-122.5 494.747,-110.378 357.409,-108.052 287.29,-115.522"/>
<polygon fill="#86c577" stroke="#86c577" points="286.979,-129.44 277.586,-123.782 282.014,-128.845 277.05,-128.25 277.05,-128.25 277.05,-128.25 282.014,-128.845 276.514,-132.718 286.979,-129.44 286.979,-129.44"/>
<polygon fill="#86c577" stroke="#86c577" points="286.979,-115.56 276.514,-112.282 282.014,-116.155 277.05,-116.75 277.05,-116.75 277.05,-116.75 282.014,-116.155 277.586,-121.218 286.979,-115.56 286.979,-115.56"/>
<text text-anchor="middle" x="556.174" y="-118.3" font-family="Times,serif" font-size="14.00">requested_friendships</text>
</g>
</g>
</svg>
